<?xml version="1.0" encoding="UTF-8"?>
<!-- Generated by Pixelmator Pro 3.7 -->
<svg width="1024" height="1024" viewBox="0 0 1024 1024" xmlns="http://www.w3.org/2000/svg">
    <g id="Group">
        <clipPath id="clipPath1">
            <path clip-rule="evenodd" d="M 356 449.539062 L 668 449.539062 L 668 293.539062 L 356 293.539062 Z"/>
        </clipPath>
        <path id="Circular-Outline" fill="#ffffff" fill-rule="evenodd" stroke="none" visibility="hidden" clip-path="url(#clipPath1)" d="M 512 605.539063 C 425.843689 605.539063 356 535.695374 356 449.539063 C 356 363.382751 425.843689 293.539063 512 293.539063 C 598.156311 293.539063 668 363.382751 668 449.539063 C 668 535.695374 598.156311 605.539063 512 605.539063 Z M 512 581.353027 C 584.798828 581.353027 643.813965 522.337891 643.813965 449.539063 C 643.813965 376.740234 584.798828 317.725098 512 317.725098 C 439.201233 317.725098 380.186035 376.740234 380.186035 449.539063 C 380.186035 522.337891 439.201233 581.353027 512 581.353027 Z"/>
        <g id="g1">
            <path id="Rounded-Rectangle" fill="#ffffff" fill-rule="evenodd" stroke="none" d="M 356 512 C 356 598.156433 425.843567 668 512 668 C 598.156433 668 668 598.156433 668 512 C 668 425.843567 598.156433 356 512 356 C 425.843567 356 356 425.843567 356 512 Z"/>
            <g id="g2">
                <path id="Pill" fill="#000000" fill-rule="evenodd" stroke="none" d="M 533.08905 554.792603 C 533.08905 566.37085 523.687073 575.756836 512.08905 575.756836 C 500.491089 575.756836 491.08905 566.37085 491.08905 554.792603 L 491.08905 512.208923 C 491.08905 500.630676 500.491089 491.244629 512.08905 491.244629 C 523.687073 491.244629 533.08905 500.630676 533.08905 512.208923 L 533.08905 554.792603 Z"/>
                <path id="Circle" fill="#000000" fill-rule="evenodd" stroke="none" d="M 553.53125 491.078125 C 553.53125 467.882141 534.727234 449.078125 511.53125 449.078125 C 488.335297 449.078125 469.53125 467.882141 469.53125 491.078125 C 469.53125 514.274048 488.335297 533.078125 511.53125 533.078125 C 534.727234 533.078125 553.53125 514.274048 553.53125 491.078125 Z"/>
            </g>
        </g>
    </g>
</svg>
